<?xml version="1.0" encoding="utf-8"?>
<!-- Generator: Adobe Illustrator 18.1.1, SVG Export Plug-In . SVG Version: 6.00 Build 0)  -->
<svg version="1.1" id="Layer_1" xmlns="http://www.w3.org/2000/svg" xmlns:xlink="http://www.w3.org/1999/xlink" x="0px" y="0px"
	 viewBox="0 252 762 270" enable-background="new 0 252 762 270" xml:space="preserve">
<g id="Слой_1">
	<g>
		<g>
			
				<linearGradient id="SVGID_1_" gradientUnits="userSpaceOnUse" x1="181.85" y1="447" x2="181.85" y2="779.9" gradientTransform="matrix(0.6011 0 0 -0.6011 0 764.7569)">
				<stop  offset="0" style="stop-color:#3F8BCD"/>
				<stop  offset="1" style="stop-color:#3F54CD"/>
			</linearGradient>
			<path fill="url(#SVGID_1_)" d="M109.3,496.1c5.9,0,11.3-2.3,15.3-6.1l94-94l-94.1-94.1c-4-3.7-9.3-6-15.2-6
				c-5.9,0-11.2,2.3-15.2,6L0,396l94,94C98,493.8,103.4,496.1,109.3,496.1z M109.3,324.7l71.2,71.2l-71.2,71.2L38.1,396L109.3,324.7
				z"/>
			
				<linearGradient id="SVGID_2_" gradientUnits="userSpaceOnUse" x1="181.85" y1="447" x2="181.85" y2="613.5" gradientTransform="matrix(0.6011 0 0 -0.6011 0 764.7569)">
				<stop  offset="0" style="stop-color:#3F8BCD"/>
				<stop  offset="1" style="stop-color:#3F54CD"/>
			</linearGradient>
			<path fill="url(#SVGID_2_)" d="M109.3,467.2L38.1,396H0l94,94c4,3.8,9.4,6.1,15.3,6.1c5.9,0,11.3-2.3,15.3-6.1l94-94h-38.1
				L109.3,467.2z"/>
		</g>
		<path fill="#EA3636" d="M163.3,381.4c-3.8-14.2-31.2-19.2-61-11.1c-29.8,8.1-50.9,26.2-46.9,40.5s31.2,19.2,61,11.1
			C146.1,413.7,167.2,395.6,163.3,381.4z M150.4,399.9c-2.9,3.2-6.7,6-11,8.5c-4.6,2.6-9.6,4.7-15,6.1c-5.4,1.4-10.8,2.2-16,2.3
			c-5,0.1-9.7-0.5-13.8-1.8c-7.5-2.2-12.6-6.3-13.9-11.2c-1.3-4.9,1-10.9,6.3-16.7c2.9-3.2,6.7-6,11-8.5c4.6-2.6,9.6-4.7,15-6.1
			c5.4-1.4,10.8-2.2,16-2.3c5-0.1,9.7,0.5,13.8,1.8c7.5,2.2,12.6,6.3,13.9,11.2C158.1,388,155.8,394.1,150.4,399.9z"/>
		<g id="TlJC9u.tif_1_">
			<g>
				
					<linearGradient id="SVGID_3_" gradientUnits="userSpaceOnUse" x1="736.1215" y1="513.5466" x2="736.1215" y2="675.8337" gradientTransform="matrix(0.6011 0 0 -0.6011 0 764.7569)">
					<stop  offset="0" style="stop-color:#3F8BCD"/>
					<stop  offset="0.1025" style="stop-color:#3F82CD"/>
					<stop  offset="0.4426" style="stop-color:#3F69CD"/>
					<stop  offset="0.7518" style="stop-color:#3F59CD"/>
					<stop  offset="1" style="stop-color:#3F54CD"/>
				</linearGradient>
				<path fill="url(#SVGID_3_)" d="M424.6,424.2c0,9.9,0,19.6,0,29.3c0,2.5,0,2.5-2.4,2.5c-4.8,0-9.6,0-14.5,0c-2.3,0-2.3,0-2.3-2.4
					c0-30.4,0-60.9-0.1-91.3c0-1.8,0.6-2.3,2.3-2.3c4.6,0.1,9.1,0.1,13.7,0c1.3,0,1.9,0.3,1.8,1.7c-0.1,2.1,0,4.2,0,6.5
					c0.3-0.1,0.6-0.1,0.7-0.2c6.4-7.6,14.9-9.9,24.4-9.4c18.4,1.1,30.4,16.3,31.4,33c0.6,9.1-1,17.6-6,25.4
					c-8.7,13.9-27.5,19.2-41.9,11.9C429.3,427.7,427.1,425.9,424.6,424.2z M460.5,395.3c-0.2-1.9-0.4-3.9-0.8-5.7
					c-1.9-8.2-9.1-13.8-17.6-13.6c-8.8,0.1-15.7,5.7-17.2,14.2c-0.5,2.7-0.5,5.6-0.2,8.3c0.9,11.8,11.9,19,23.2,15.4
					C455.5,411.5,460.2,404.5,460.5,395.3z"/>
				
					<linearGradient id="SVGID_4_" gradientUnits="userSpaceOnUse" x1="474.3297" y1="555.9993" x2="474.3297" y2="715.2533" gradientTransform="matrix(0.6011 0 0 -0.6011 0 764.7569)">
					<stop  offset="0" style="stop-color:#3F8BCD"/>
					<stop  offset="0.1025" style="stop-color:#3F82CD"/>
					<stop  offset="0.4426" style="stop-color:#3F69CD"/>
					<stop  offset="0.7518" style="stop-color:#3F59CD"/>
					<stop  offset="1" style="stop-color:#3F54CD"/>
				</linearGradient>
				<path fill="url(#SVGID_4_)" d="M330.1,430.5c-6.6,0-12.9,0-19.3,0c-1.2,0-1.5-0.6-1.9-1.5c-1.3-3.1-2.7-6.1-3.9-9
					c-0.5-1.2-1.1-1.6-2.4-1.6c-11.7,0.1-23.3,0.1-35,0c-1.3,0-1.9,0.5-2.4,1.6c-1.2,3.1-2.6,6.1-3.9,9c-0.4,0.9-0.7,1.5-1.9,1.5
					c-6.1-0.1-12.4-0.1-18.5-0.1c-0.2,0-0.2-0.2-0.6-0.3c1.7-3.9,3.4-7.7,5.1-11.5c11.9-27.1,23.8-54.3,35.7-81.4
					c0.7-1.7,1.6-2.3,3.5-2.3c3-0.2,4.4,0.8,5.6,3.6c11.4,26.4,23,52.7,34.5,79.1c1.5,3.5,3.1,6.9,4.6,10.4
					C329.5,428.8,329.8,429.6,330.1,430.5z M297.6,402.5c-4.2-10.6-8.2-20.8-12.5-31.7c-4.3,10.8-8.3,21.2-12.5,31.7
					C281.1,402.5,289.2,402.5,297.6,402.5z"/>
				
					<linearGradient id="SVGID_5_" gradientUnits="userSpaceOnUse" x1="879.8342" y1="553.3357" x2="879.8342" y2="675.7012" gradientTransform="matrix(0.6011 0 0 -0.6011 0 764.7569)">
					<stop  offset="0" style="stop-color:#3F8BCD"/>
					<stop  offset="0.1025" style="stop-color:#3F82CD"/>
					<stop  offset="0.4426" style="stop-color:#3F69CD"/>
					<stop  offset="0.7518" style="stop-color:#3F59CD"/>
					<stop  offset="1" style="stop-color:#3F54CD"/>
				</linearGradient>
				<path fill="url(#SVGID_5_)" d="M515.1,397.6c1-0.9,1.6-1.5,2.2-2.1c12.3-11.8,24.6-23.5,36.7-35.4c2.3-2.2,4.7-1.4,7.1-1.5
					c0.2,0,0.6,0.6,0.7,0.9c0.1,0.6,0.1,1.4,0.1,2c0,22,0,44,0,66c0,3.5,0.2,3-2.9,3.1c-4.6,0-9.1,0-13.7,0c-2.3,0-2.3,0-2.3-2.3
					c0-10.7,0-21.5,0-32.2c0-0.8,0-1.6,0-2.9c-1,0.9-1.6,1.4-2.2,1.9c-12.2,11.8-24.4,23.4-36.4,35.3c-2.4,2.4-5.1,1.6-7.8,1.7
					c-0.2,0-0.6-0.5-0.7-0.8c-0.2-0.6-0.1-1.2-0.1-1.8c0-22.2,0-44.5,0-66.7c0-2.9-0.2-2.7,2.6-2.7c4.8,0,9.6,0.1,14.5-0.1
					c1.8-0.1,2.3,0.5,2.3,2.3c-0.1,11.1,0,22.1,0,33.3C515,396.1,515,396.6,515.1,397.6z"/>
				
					<linearGradient id="SVGID_6_" gradientUnits="userSpaceOnUse" x1="1027.223" y1="555.9658" x2="1027.223" y2="673.2929" gradientTransform="matrix(0.6011 0 0 -0.6011 0 764.7569)">
					<stop  offset="0" style="stop-color:#3F8BCD"/>
					<stop  offset="0.1025" style="stop-color:#3F82CD"/>
					<stop  offset="0.4426" style="stop-color:#3F69CD"/>
					<stop  offset="0.7518" style="stop-color:#3F59CD"/>
					<stop  offset="1" style="stop-color:#3F54CD"/>
				</linearGradient>
				<path fill="url(#SVGID_6_)" d="M652.3,430.5c-7.2,0-14,0.1-20.7-0.1c-0.8,0-1.8-0.9-2.3-1.5c-8.2-10.7-16.3-21.6-24.5-32.4
					c-0.9-1.1-1.7-2.3-2.9-3.9c-0.1,1.3-0.2,2.1-0.2,2.8c0,10.7,0,21.3,0,32c0,3.5,0.5,3-3.1,3.1c-4.5,0-9,0-13.5,0
					c-2.6,0-2.6,0-2.6-2.6c0-16.2,0-32.5,0-48.7c0-5.7,0.1-11.3,0-17c0-1.6,0.4-2.2,2.1-2.2c5,0.1,10,0.1,14.9,0
					c1.8-0.1,2.3,0.6,2.3,2.3c-0.1,9,0,18.1,0,27.1c0,0.6,0.1,1.3,0.1,2.4c3.6-4.4,6.9-8.4,10.3-12.4c4.9-6,9.9-12,14.9-17.9
					c0.6-0.6,1.6-1.4,2.4-1.4c6.7-0.1,13.3-0.1,20.6-0.1c-0.7,1-1.2,1.6-1.7,2.2c-7.8,9.3-15.6,18.5-23.4,27.8
					c-1.6,1.9-1.6,1.9-0.2,4c8.7,11.5,17.4,23.1,26.1,34.6C651.4,429.2,651.7,429.6,652.3,430.5z"/>
				
					<linearGradient id="SVGID_7_" gradientUnits="userSpaceOnUse" x1="1149.8085" y1="553.1781" x2="1149.8085" y2="675.7456" gradientTransform="matrix(0.6011 0 0 -0.6011 0 764.7569)">
					<stop  offset="0" style="stop-color:#3F8BCD"/>
					<stop  offset="0.1025" style="stop-color:#3F82CD"/>
					<stop  offset="0.4426" style="stop-color:#3F69CD"/>
					<stop  offset="0.7518" style="stop-color:#3F59CD"/>
					<stop  offset="1" style="stop-color:#3F54CD"/>
				</linearGradient>
				<path fill="url(#SVGID_7_)" d="M695,432.2c-17.9,0-32.8-11.5-36.8-28.6c-4.8-19.8,8-40.1,28.1-44.1c10.5-2.2,20.5-1,29.5,5.5
					c3.7,2.7,6.6,6,9,9.9c0.6,1,0.3,1.4-0.4,2c-3.7,2.8-7.3,5.7-11,8.6c-1,0.8-1.5,0.6-2.2-0.3c-1.1-1.5-2.3-2.9-3.7-4.1
					c-5.6-5.2-12.2-6.1-19.1-3.6c-6.5,2.4-10.3,7.5-11.3,14.4c-1,6.7,0.4,12.8,5.2,17.8c6.1,6.3,18.6,7.8,26.6-1
					c0.9-1,1.7-1.9,2.4-2.9c0.6-0.9,1.2-0.9,2-0.2c3.6,2.8,7.3,5.7,11.1,8.5c1.3,1,0.6,1.6,0.1,2.5
					C718.1,426.4,707.5,432.2,695,432.2z"/>
				
					<linearGradient id="SVGID_8_" gradientUnits="userSpaceOnUse" x1="601.951" y1="555.8649" x2="601.951" y2="673.2692" gradientTransform="matrix(0.6011 0 0 -0.6011 0 764.7569)">
					<stop  offset="0" style="stop-color:#3F8BCD"/>
					<stop  offset="0.1025" style="stop-color:#3F82CD"/>
					<stop  offset="0.4426" style="stop-color:#3F69CD"/>
					<stop  offset="0.7518" style="stop-color:#3F59CD"/>
					<stop  offset="1" style="stop-color:#3F54CD"/>
				</linearGradient>
				<path fill="url(#SVGID_8_)" d="M362,360c9.7,0,19.5,0,29.2,0c2.5,0,2.5,0,2.5,2.5c0,4-0.1,7.9,0,12c0,1.5-0.5,1.9-1.9,1.9
					c-6.1-0.1-12.2,0-18.3-0.1c-1.8,0-2.3,0.6-2.3,2.3c0.1,16.2,0,32.5,0,48.7c0,0.6,0,1.4,0,2c0.1,1-0.3,1.4-1.3,1.4
					c-5.4,0-10.8,0-16.2,0c-1.1,0-1.5-0.5-1.5-1.5c0.1-3,0-5.9,0-8.9c0-13.8,0-27.6,0-41.3c0-2.6,0-2.6-2.6-2.6
					c-5.8,0-11.7-0.1-17.5,0c-1.6,0-2.3-0.3-2.2-2.1c0.2-4,0-7.9,0.1-12c0-2.3,0-2.3,2.4-2.3C342.4,360,352.2,360,362,360z"/>
			</g>
		</g>
		<g id="_x31_tp8DC.tif_1_">
			<g>
				<path fill="#F9DC00" d="M143.8,359.7c4.2,4.1,8.4,8.3,12.7,12.4c0.1,0,0.1-0.1,0.2-0.1c1-12.8,2.1-21.8,3.1-34.6
					c0.1,0,0.1-0.5,0.2-0.5c1,12.8,2.1,22.4,3.1,35.1c0.1,0.1,0.1,0.1,0.2,0.1c4.2-4.1,8.5-8.3,12.7-12.4c0.1,0.1,0.1,0.1,0.1,0.1
					c-3.2,5.2-6.4,10.4-9.7,15.7c8.2,1.2,16.2,2.5,24.3,3.7c0,0.1,0,0.2,0,0.2c-8.3,1.3-16.6,2.6-25,4c3.1,4.9,6.2,9.7,9.3,14.5
					c0,0.1-0.1,0.1-0.1,0.1c-3.8-3.5-7.7-7-11.6-10.7c-1.1,18.2-2.2,36.2-3.2,54.2c-0.1,0-0.2,0-0.3,0c-1.1-18-2.1-36.1-3.2-54.3
					c-3.9,3.6-7.8,7.2-11.6,10.7L145,398c3.1-4.8,6.1-9.6,9.3-14.5c-8.4-1.3-16.7-2.6-25-4c0-0.1,0-0.1,0-0.2
					c8.1-1.2,16.2-2.5,24.3-3.7c-3.3-5.3-6.5-10.5-9.7-15.7C143.8,359.8,143.8,359.8,143.8,359.7z"/>
			</g>
		</g>
	</g>
</g>
<g id="Слой_2">
</g>
</svg>
